<svg width="158" height="36" viewBox="0 0 158 36" fill="none" xmlns="http://www.w3.org/2000/svg">
<path d="M140.63 0.500066C150.236 0.526561 158.01 8.36322 158.005 18.0137C157.994 27.6852 150.189 35.5105 140.562 35.5001C130.939 35.4895 123.149 27.6376 123.165 17.9659C123.181 8.2995 131.008 0.47377 140.63 0.500066ZM140.604 3.22956C132.505 3.21904 125.893 9.83519 125.877 17.9659C125.861 26.1218 132.466 32.7678 140.579 32.7696C148.677 32.7685 155.283 26.1489 155.283 18.0137C155.289 9.87781 148.697 3.24017 140.604 3.22956ZM149.613 24.4874H146.232V17.3458H149.613V24.4874ZM133.667 11.4024C135.054 11.4655 136.452 11.2075 137.787 11.7071L137.792 11.713C139.876 12.4913 141.205 13.9898 141.724 16.1563C142.294 18.5438 141.876 20.7426 140.18 22.5674C137.07 25.9175 131.714 24.6662 130.206 20.2696C129.876 19.3072 129.783 18.5128 129.866 17.2979H138.478C138.441 16.4514 138.075 15.8254 137.468 15.3311C136.934 14.8946 136.321 14.6683 135.63 14.6788C134.986 14.684 134.337 14.6788 133.667 14.6788V11.4024ZM47.1388 18.6915C47.1388 21.563 45.0493 23.967 42.1856 24.3878C39.2749 24.8136 36.5479 23.1459 35.7208 20.4112C35.5899 19.9695 35.4903 19.496 35.4903 19.0333C35.4694 16.6563 35.4796 14.2794 35.4796 11.9024C35.4796 11.8289 35.49 11.755 35.4952 11.6553H38.9034V12.1339C38.9034 14.3163 38.8926 16.4934 38.9083 18.6758C38.9135 19.8118 39.6209 20.685 40.6837 20.9532C41.7515 21.2212 42.8976 20.7796 43.3897 19.8174C43.5939 19.423 43.6941 18.9279 43.6993 18.4757C43.7307 16.3721 43.7149 14.2686 43.7149 12.1651V11.6495H47.1388V18.6915ZM73.4766 11.3604C77.0575 11.3604 79.8955 14.2739 79.8956 17.9395C79.8956 21.5262 76.9743 24.4238 73.3673 24.4239C69.7183 24.4239 66.8653 21.5316 66.8653 17.8292C66.8653 14.1689 69.7388 11.3606 73.4766 11.3604ZM116.489 8.56257C116.479 11.7601 116.526 14.9581 116.442 18.1505C116.369 20.8166 114.945 22.6463 112.595 23.8243C109.192 25.5283 104.155 23.509 103.548 18.6495C103.019 14.4265 106.642 10.8455 110.799 11.4239C111.212 11.4817 111.621 11.6079 112.019 11.7393C112.401 11.8655 112.773 12.039 113.213 12.2178V8.34675H116.489V8.56257ZM19.1085 13.3067C22.1659 9.85667 27.5904 11.1026 29.1348 15.5098C29.4803 16.4827 29.5738 17.4714 29.4796 18.5284C26.6214 18.5284 23.6637 18.5079 20.795 18.5079C20.8369 19.0337 20.936 19.5648 21.1925 19.9434C21.7579 20.7639 22.6482 21.2216 23.6534 21.2374C24.3129 21.2479 24.9723 21.2374 25.6632 21.2374C25.6632 22.3364 25.6788 23.12 25.6788 24.2979C24.1241 24.3084 23.1399 24.4189 21.9464 24.0928C19.8523 23.5196 18.1818 22.0945 17.6583 19.8067C17.1034 17.377 17.4862 15.1367 19.1143 13.296L19.1085 13.3067ZM61.127 11.5128L61.1222 11.5186C61.4832 11.5396 61.8443 11.5186 62.2472 11.5186V14.7686C61.5668 14.7686 60.8917 14.7581 60.2218 14.7686C58.9496 14.7897 57.8288 15.6414 57.5147 16.8458C57.4257 17.1771 57.4044 17.5299 57.4044 17.877V24.1143H53.96V18.2813C53.9654 14.4474 57.3158 11.2814 61.127 11.5128ZM90.0987 11.4551C93.5016 10.5926 96.7578 12.7071 97.339 16.1729L97.3341 16.1778C97.3864 16.4565 97.3868 16.746 97.3868 17.0352V23.8038C97.3868 23.8878 97.3758 23.9771 97.3653 24.0821H93.9464V17.0137C93.941 15.8358 93.0931 14.8578 91.9415 14.6895C90.7532 14.5161 89.5648 15.2259 89.2716 16.3565C89.1616 16.7825 89.1876 17.2509 89.1876 17.7032V24.088H85.7218V17.1085C85.7219 14.458 87.5493 12.1021 90.0987 11.4551ZM2.8536 12.0811C5.75393 10.2773 10.3657 11.5028 11.4337 15.5313C11.5645 16.0203 11.654 16.5412 11.6593 17.046L11.6534 17.0508C11.6796 19.2543 11.6641 21.4577 11.6641 23.6612V23.8614C11.6641 23.9349 11.6482 23.9508 11.6378 24.0714C11.6396 24.0714 11.6418 24.0723 11.6436 24.0723H8.60164C8.84856 24.0671 9.0965 24.0636 9.34579 24.0626C9.09534 24.0635 8.84589 24.0671 8.59676 24.0723H8.47079C8.451 24.0718 8.43261 24.0679 8.41512 24.0665H8.16707V23.8614C8.16551 23.8529 8.16349 23.8441 8.16219 23.835L8.15633 20.4112V16.9512C8.1511 15.7416 7.22993 14.7682 6.02059 14.6788C4.77988 14.5894 3.62276 15.447 3.43953 16.5987C3.40293 16.8037 3.4034 17.0193 3.4034 17.2296V24.0821H8.17949e-05V23.5987C8.17949e-05 21.4477 0.0105518 19.2966 8.17949e-05 17.1456C-0.0103887 14.9052 0.984611 13.2434 2.8536 12.0811ZM11.669 24.0723H11.6436C11.6538 23.9514 11.669 23.935 11.669 23.8614V24.0723ZM133.122 19.5118C133.211 20.8897 134.598 21.7471 135.85 21.7471C137.012 21.7471 138.467 20.8897 138.478 19.5118H133.122ZM73.3614 14.4844C71.5711 14.4899 70.0374 16.0731 70.0636 17.8926C70.0899 19.7436 71.5817 21.2789 73.377 21.295V21.2999C75.1726 21.3104 76.7329 19.7175 76.7227 17.877C76.7123 16.0153 75.1885 14.4844 73.3614 14.4844ZM110.035 14.5899C108.329 14.5794 106.862 16.0625 106.82 17.8507C106.784 19.6012 108.254 21.1404 109.981 21.1573C111.701 21.1711 113.16 19.7004 113.202 17.9083C113.244 16.1887 111.731 14.6007 110.035 14.5899ZM23.4698 14.1846C22.1819 14.1846 21.0773 15.1788 20.8155 16.2833L20.8204 16.2774C22.595 16.2774 24.4171 16.293 26.2022 16.293C25.8095 15.0101 24.7575 14.1846 23.4698 14.1846ZM149.618 14.5792H146.236V11.46H149.618V14.5792Z" fill="black"/>
</svg>
